{
	"asset":{
		"generator":"Khronos glTF Blender I/O v3.5.30",
		"version":"2.0"
	},
	"scene":0,
	"scenes":[
		{
			"name":"Scene",
			"nodes":[
				0,
				1
			]
		}
	],
	"nodes":[
		{
			"name":"Empty",
			"rotation":[
				-1,
				0,
				0,
				4.371138828673793e-08
			]
		},
		{
			"mesh":0,
			"name":"Cube",
			"rotation":[
				0,
				-0.0772780328989029,
				0,
				0.9970095753669739
			],
			"scale":[
				0.0661320686340332,
				0.0661320686340332,
				0.07277975231409073
			],
			"translation":[
				-1.8535817861557007,
				-0.5984781980514526,
				-0.4455394148826599
			]
		}
	],
	"meshes":[
		{
			"name":"Cube.001",
			"primitives":[
				{
					"attributes":{
						"POSITION":0,
						"TEXCOORD_0":1,
						"NORMAL":2
					},
					"indices":3
				}
			]
		}
	],
	"accessors":[
		{
			"bufferView":0,
			"componentType":5126,
			"count":801,
			"max":[
				57.86247253417969,
				2.2758431434631348,
				2.124478816986084
			],
			"min":[
				-3.7306180000305176,
				-2.2758431434631348,
				-9.510711669921875
			],
			"type":"VEC3"
		},
		{
			"bufferView":1,
			"componentType":5126,
			"count":801,
			"type":"VEC2"
		},
		{
			"bufferView":2,
			"componentType":5126,
			"count":801,
			"type":"VEC3"
		},
		{
			"bufferView":3,
			"componentType":5123,
			"count":1344,
			"type":"SCALAR"
		}
	],
	"bufferViews":[
		{
			"buffer":0,
			"byteLength":9612,
			"byteOffset":0,
			"target":34962
		},
		{
			"buffer":0,
			"byteLength":6408,
			"byteOffset":9612,
			"target":34962
		},
		{
			"buffer":0,
			"byteLength":9612,
			"byteOffset":16020,
			"target":34962
		},
		{
			"buffer":0,
			"byteLength":2688,
			"byteOffset":25632,
			"target":34963
		}
	],
	"buffers":[
		{
			"byteLength":28320,
			"uri":"katana.bin"
		}
	]
}
