{
	"asset":{
		"generator":"Khronos glTF Blender I/O v3.5.30",
		"version":"2.0"
	},
	"scene":0,
	"scenes":[
		{
			"name":"Scene",
			"nodes":[
				0
			]
		}
	],
	"nodes":[
		{
			"mesh":0,
			"name":"Cube",
			"rotation":[
				0,
				-0.0772780328989029,
				0,
				0.9970095753669739
			],
			"scale":[
				0.0661320686340332,
				0.0661320686340332,
				0.07277975231409073
			],
			"translation":[
				-1.4212746620178223,
				0,
				0
			]
		}
	],
	"meshes":[
		{
			"name":"Cube.001",
			"primitives":[
				{
					"attributes":{
						"POSITION":0,
						"TEXCOORD_0":1,
						"NORMAL":2
					},
					"indices":3
				}
			]
		}
	],
	"accessors":[
		{
			"bufferView":0,
			"componentType":5126,
			"count":793,
			"max":[
				74.7100601196289,
				2.2758431434631348,
				-0.2630190849304199
			],
			"min":[
				13.116971969604492,
				-2.2758431434631348,
				-11.898209571838379
			],
			"type":"VEC3"
		},
		{
			"bufferView":1,
			"componentType":5126,
			"count":793,
			"type":"VEC2"
		},
		{
			"bufferView":2,
			"componentType":5126,
			"count":793,
			"type":"VEC3"
		},
		{
			"bufferView":3,
			"componentType":5123,
			"count":1344,
			"type":"SCALAR"
		}
	],
	"bufferViews":[
		{
			"buffer":0,
			"byteLength":9516,
			"byteOffset":0,
			"target":34962
		},
		{
			"buffer":0,
			"byteLength":6344,
			"byteOffset":9516,
			"target":34962
		},
		{
			"buffer":0,
			"byteLength":9516,
			"byteOffset":15860,
			"target":34962
		},
		{
			"buffer":0,
			"byteLength":2688,
			"byteOffset":25376,
			"target":34963
		}
	],
	"buffers":[
		{
			"byteLength":28064,
			"uri":"katana.bin"
		}
	]
}
